#!OML:ASF F:\VICON\USERDATA\INSTALL\Justin_Nancy\Justin_Nancy.ASF
:FULLY-SPECIFIED
:DEGREES
149
root -0.441871 16.5514 23.2815 6.67607 -12.4043 2.56711
lowerback 16.8655 0.663186 -0.0755811
upperback 3.19228 1.00514 2.4718
thorax -6.0818 0.500011 2.45685
lowerneck -22.1835 -4.40898 -8.84644
upperneck 1.47173 -3.85939 4.20576
head 4.13059 -1.73413 2.34898
rclavicle 7.55382e-015 -8.74653e-015
rhumerus -49.6387 12.2179 -90.5369
rradius 102.727
rwrist -17.6037
rhand -21.2704 23.7564
rfingers 7.12502
rthumb 5.11329 -6.16193
lclavicle 7.55382e-015 -8.74653e-015
lhumerus -41.8643 -10.0393 83.6214
lradius 73.4648
lwrist 66.8842
lhand -38.1248 23.8798
lfingers 7.12502
lthumb -11.1596 53.5631
rfemur -37.3537 -7.90625 26.7469
rtibia 51.4439
rfoot -15.0754 -7.97872
rtoes 1.46147
lfemur -9.83567 9.59356 -24.6414
ltibia 90.6088
lfoot 25.5252 -4.60382
ltoes -4.05959
150
root -0.493026 16.4823 23.8585 6.41472 -12.2511 1.81134
lowerback 17.2749 0.713972 0.508387
upperback 3.27047 1.19081 2.6448
thorax -6.22034 0.579978 2.26724
lowerneck -22.2415 -4.41637 -8.90834
upperneck 1.55275 -3.86538 4.43042
head 4.17195 -1.72269 2.42874
rclavicle -2.62396e-014 -1.27222e-014
rhumerus -46.7362 13.8701 -91.2627
rradius 101.604
rwrist -18.0334
rhand -21.6051 23.3844
rfingers 7.12502
rthumb 4.79012 -6.54146
lclavicle -2.62396e-014 -1.27222e-014
lhumerus -42.1478 -9.2506 82.8515
lradius 69.4484
lwrist 61.0133
lhand -39.1399 25.4161
lfingers 7.12502
lthumb -12.1386 55.0439
rfemur -34.8247 -6.27093 26.7598
rtibia 52.3512
rfoot -17.061 -11.0566
rtoes -0.189654
lfemur -12.6671 10.8103 -22.5469
ltibia 94.3199
lfoot 23.4875 -3.75298
ltoes -1.44166
151
root -0.537764 16.4193 24.4367 6.15234 -12.2632 0.752402
lowerback 17.8643 0.732882 1.33233
upperback 3.31264 1.39714 2.91532
thorax -6.489 0.664802 2.03894
lowerneck -22.4276 -4.33618 -8.84107
upperneck 1.76507 -3.76168 4.43277
head 4.2582 -1.67065 2.42688
rclavicle -2.14687e-014 1.43125e-014
rhumerus -43.8349 15.9979 -91.9677
rradius 100.72
rwrist -18.028
rhand -22.2169 23.2531
rfingers 7.12502
rthumb 4.1993 -6.68524
lclavicle -2.14687e-014 1.43125e-014
lhumerus -42.8249 -8.4411 82.0978
lradius 66.123
lwrist 55.6905
lhand -39.4102 27.707
lfingers 7.12502
lthumb -12.3992 57.3193
rfemur -31.6855 -4.70159 27.1638
rtibia 52.7184
rfoot -19.0198 -13.5502
rtoes -2.74713
lfemur -15.4051 12.1176 -20.2044
ltibia 97.6148
lfoot 21.3564 -3.47481
ltoes 2.30594
152
root -0.584004 16.4007 25.0287 6.23765 -12.2171 -0.395721
lowerback 17.8585 0.711952 2.32342
upperback 3.5736 1.55903 3.18699
thorax -6.19106 0.726074 1.72955
lowerneck -23.1488 -4.29462 -8.67874
upperneck 1.89796 -3.67009 4.26234
head 4.38997 -1.62896 2.34928
rclavicle -2.42517e-014 -1.74931e-014
rhumerus -40.5279 18.2711 -92.4455
rradius 100.621
rwrist -17.9969
rhand -22.3879 23.1398
rfingers 7.12502
rthumb 4.03423 -6.80177
lclavicle -2.42517e-014 -1.74931e-014
lhumerus -43.2896 -7.89135 81.401
lradius 63.574
lwrist 52.4014
lhand -38.937 29.1586
lfingers 7.12502
lthumb -11.9429 58.798
rfemur -28.9589 -3.98873 28.0862
rtibia 52.0071
rfoot -17.8195 -17.3308
rtoes -17.7115
lfemur -18.5685 13.4333 -17.8737
ltibia 100.291
lfoot 19.2017 -3.73217
ltoes 5.17295
153
root -0.62698 16.3344 25.589 6.57221 -11.9227 -1.49165
lowerback 17.7204 0.672334 3.23225
upperback 3.76063 1.67829 3.51741
thorax -5.90124 0.772551 1.54217
lowerneck -23.6113 -4.31383 -8.80619
upperneck 1.56022 -3.61955 4.34564
head 4.34835 -1.59094 2.39913
rclavicle -1.19271e-014 7.95139e-015
rhumerus -37.4694 20.5147 -92.6029
rradius 101.462
rwrist -18.2845
rhand -21.9381 23.4761
rfingers 7.12502
rthumb 4.46857 -6.45679
lclavicle -1.19271e-014 7.95139e-015
lhumerus -44.2977 -7.65203 80.9706
lradius 62.2094
lwrist 51.5537
lhand -37.828 27.5538
lfingers 7.12502
lthumb -10.8733 57.2523
rfemur -26.0771 -3.01495 28.7034
rtibia 51.5516
rfoot -21.1156 -17.5628
rtoes -10.8463
lfemur -22.6983 14.4315 -15.8146
ltibia 103.024
lfoot 17.8312 -4.41546
ltoes 3.95799
154
root -0.661899 16.2995 26.1528 6.80298 -11.1764 -2.10982
lowerback 18.0411 0.48223 3.85205
upperback 3.59655 1.5872 3.72168
thorax -6.23828 0.714805 1.42907
lowerneck -23.6399 -4.24775 -8.87247
upperneck 1.15993 -3.51456 4.45221
head 4.22226 -1.52737 2.45694
rclavicle 3.97569e-015 5.00937e-014
rhumerus -35.1932 22.6502 -92.7781
rradius 103.02
rwrist -18.8465
rhand -20.9602 23.9905
rfingers 7.12502
rthumb 5.41274 -5.92041
lclavicle 3.97569e-015 5.00937e-014
lhumerus -46.2875 -7.25086 80.4838
lradius 63.8039
lwrist 53.7753
lhand -38.5343 34.4872
lfingers 7.12502
lthumb -11.5546 64.1486
rfemur -24.096 -3.40015 29.3078
rtibia 50.5449
rfoot -19.1178 -21.2374
rtoes -20.8335
lfemur -26.9946 14.6322 -14.7248
ltibia 105.077
lfoot 16.4556 -4.5204
ltoes 0.672715
155
root -0.685571 16.2886 26.7281 7.14268 -10.2087 -2.21664
lowerback 17.9849 0.220743 4.23652
upperback 3.36142 1.33034 3.7236
thorax -6.45228 0.580459 1.27396
lowerneck -23.6196 -4.15839 -8.93406
upperneck 0.856097 -3.39249 4.64965
head 4.12132 -1.45066 2.54477
rclavicle 1.51076e-014 2.06736e-014
rhumerus -33.158 24.5847 -92.9582
rradius 104.967
rwrist -19.4718
rhand -20.0528 24.4484
rfingers 7.12502
rthumb 6.28885 -5.43823
lclavicle 1.51076e-014 2.06736e-014
lhumerus -48.7176 -7.711 80.7216
lradius 64.4767
lwrist 56.4828
lhand -37.509 22.4443
lfingers 7.12502
lthumb -10.5656 52.1587
rfemur -21.8104 -4.20351 29.0966
rtibia 49.8009
rfoot -20.6372 -21.7559
rtoes -22.7604
lfemur -31.3045 14.1811 -14.7904
ltibia 106.224
lfoot 14.8651 -3.77194
ltoes -1.79962
